<?xml version="1.0" encoding="UTF-8"?>
<svg width="600px" height="400px" viewBox="0 0 600 400" version="1.1" xmlns="http://www.w3.org/2000/svg">
    <title>Empty Sessions</title>
    <defs>
        <linearGradient x1="0%" y1="0%" x2="100%" y2="100%" id="emptyGradient">
            <stop stop-color="#1a9b9b" offset="0%"></stop>
            <stop stop-color="#0d4b6e" offset="100%"></stop>
        </linearGradient>
        <linearGradient x1="0%" y1="0%" x2="100%" y2="100%" id="goldGradient">
            <stop stop-color="#cd9b4a" offset="0%"></stop>
            <stop stop-color="#996d1d" offset="100%"></stop>
        </linearGradient>
    </defs>
    <g stroke="none" stroke-width="1" fill="none" fill-rule="evenodd">
        <!-- Background -->
        <rect fill="#FFFFFF" x="0" y="0" width="600" height="400"></rect>
        
        <!-- Decorative Elements -->
        <circle fill="url(#emptyGradient)" cx="300" cy="150" r="100" opacity="0.1"></circle>
        <circle fill="url(#emptyGradient)" cx="300" cy="150" r="80" opacity="0.1"></circle>
        <circle fill="url(#emptyGradient)" cx="300" cy="150" r="60" opacity="0.1"></circle>
        
        <!-- Dice -->
        <polygon fill="url(#emptyGradient)" points="270,130 290,150 270,170 250,150" opacity="0.8"></polygon>
        <text x="270" y="155" font-family="Arial" font-size="12" font-weight="bold" fill="#FFFFFF" text-anchor="middle">20</text>
        
        <rect fill="url(#goldGradient)" x="310" y="140" width="20" height="20" opacity="0.8"></rect>
        <text x="320" y="155" font-family="Arial" font-size="12" font-weight="bold" fill="#FFFFFF" text-anchor="middle">6</text>
        
        <!-- Scroll -->
        <rect fill="#f5f5f5" x="250" y="180" width="100" height="60" rx="5"></rect>
        <rect fill="#FFFFFF" x="260" y="190" width="80" height="40" rx="2"></rect>
        
        <!-- Quill -->
        <path d="M330,190 C340,180 350,175 355,170 C345,180 335,190 330,205 Z" fill="url(#emptyGradient)" opacity="0.8"></path>
        <rect fill="url(#goldGradient)" x="330" y="205" width="3" height="15" rx="1.5"></rect>
        
        <!-- Glowing Dots -->
        <circle fill="#4ecdc4" cx="150" cy="100" r="5" opacity="0.8">
            <animate attributeName="opacity" values="0.8;0.4;0.8" dur="3s" repeatCount="indefinite" />
        </circle>
        <circle fill="#4ecdc4" cx="450" cy="150" r="5" opacity="0.8">
            <animate attributeName="opacity" values="0.8;0.4;0.8" dur="2s" repeatCount="indefinite" />
        </circle>
        <circle fill="#4ecdc4" cx="200" cy="300" r="5" opacity="0.8">
            <animate attributeName="opacity" values="0.8;0.4;0.8" dur="4s" repeatCount="indefinite" />
        </circle>
        <circle fill="#4ecdc4" cx="400" cy="250" r="5" opacity="0.8">
            <animate attributeName="opacity" values="0.8;0.4;0.8" dur="3.5s" repeatCount="indefinite" />
        </circle>
        
        <!-- Message -->
        <text x="300" y="280" font-family="Arial" font-size="18" font-weight="bold" fill="#1a9b9b" text-anchor="middle">No Sessions Found</text>
        <text x="300" y="305" font-family="Arial" font-size="14" fill="#666666" text-anchor="middle">Create your first session to start playing</text>
    </g>
</svg>
