<?xml version="1.0" encoding="UTF-8"?>
<svg width="1440px" height="800px" viewBox="0 0 1440 800" version="1.1" xmlns="http://www.w3.org/2000/svg">
    <title>RPG Auth Background</title>
    <defs>
        <linearGradient x1="0%" y1="0%" x2="100%" y2="100%" id="linearGradient-1">
            <stop stop-color="#f5f5f5" offset="0%"></stop>
            <stop stop-color="#e0e0e0" offset="100%"></stop>
        </linearGradient>
    </defs>
    <g id="Background" stroke="none" stroke-width="1" fill="none" fill-rule="evenodd">
        <rect id="Base" fill="url(#linearGradient-1)" x="0" y="0" width="1440" height="800"></rect>
        <g id="RPGElements" opacity="0.05" transform="translate(0.000000, 0.000000)" fill="#3f51b5">
            <!-- D20 Dice -->
            <path d="M100,100 L130,150 L100,200 L70,150 L100,100 Z" id="D20-1"></path>
            <path d="M300,300 L330,350 L300,400 L270,350 L300,300 Z" id="D20-2"></path>
            <path d="M500,500 L530,550 L500,600 L470,550 L500,500 Z" id="D20-3"></path>
            <path d="M700,100 L730,150 L700,200 L670,150 L700,100 Z" id="D20-4"></path>
            <path d="M900,300 L930,350 L900,400 L870,350 L900,300 Z" id="D20-5"></path>
            <path d="M1100,500 L1130,550 L1100,600 L1070,550 L1100,500 Z" id="D20-6"></path>
            <path d="M1300,100 L1330,150 L1300,200 L1270,150 L1300,100 Z" id="D20-7"></path>
            
            <!-- Swords -->
            <path d="M200,200 L220,180 L400,360 L380,380 L200,200 Z M380,360 L400,380 L380,400 L360,380 L380,360 Z" id="Sword-1"></path>
            <path d="M800,400 L820,380 L1000,560 L980,580 L800,400 Z M980,560 L1000,580 L980,600 L960,580 L980,560 Z" id="Sword-2"></path>
            
            <!-- Shields -->
            <path d="M600,200 C600,200 650,220 700,200 L700,300 C700,300 650,350 600,300 L600,200 Z" id="Shield-1"></path>
            <path d="M1000,200 C1000,200 1050,220 1100,200 L1100,300 C1100,300 1050,350 1000,300 L1000,200 Z" id="Shield-2"></path>
            
            <!-- Scrolls -->
            <path d="M400,600 C400,600 450,580 500,600 C550,620 600,600 600,600 L600,700 C600,700 550,720 500,700 C450,680 400,700 400,700 L400,600 Z" id="Scroll-1"></path>
            <path d="M800,600 C800,600 850,580 900,600 C950,620 1000,600 1000,600 L1000,700 C1000,700 950,720 900,700 C850,680 800,700 800,700 L800,600 Z" id="Scroll-2"></path>
        </g>
    </g>
</svg>
